# xmcd
#
# Track frame offsets:
#	150
#	24882
#	40441
#	45186
#	87921
#	121593
#	175932
#	201785
#	229811
#	252304
#
# Disc length: 3422 seconds
#
# Revision: 1
# Processed by: cddbd v1.5.2PL0 Copyright (c) Steve Scherf et al.
# Submitted via: audiograbber 1.83.01
#
DISCID=730d5c0a
DTITLE=Grateful Dead - 69-12-12 Thelma Theatre, Los Angeles CA
DYEAR=1900
DGENRE=
TTITLE0=Stage Banter
TTITLE1=Me and My Uncle
TTITLE2=Stage Banter
TTITLE3=Easy Wind
TTITLE4=Cumberland Blues
TTITLE5=Black Peter
TTITLE6=Next Time You See Me
TTITLE7=China Cat Sunflower
TTITLE8=I Know You Rider
TTITLE9=Applause
EXTD=
EXTT0=
EXTT1=
EXTT2=
EXTT3=
EXTT4=
EXTT5=
EXTT6=
EXTT7=
EXTT8=
EXTT9=
PLAYORDER=
